<svg xmlns="http://www.w3.org/2000/svg" width="29" height="33.969"><path data-name="Apple logo" d="M24.226 18.039a7.671 7.671 0 013.849-6.468 8.474 8.474 0 00-6.516-3.369c-2.775-.268-5.415 1.558-6.821 1.558s-3.58-1.517-5.88-1.476a8.791 8.791 0 00-7.374 4.258c-3.14 5.2-.8 12.9 2.26 17.121 1.5 2.061 3.28 4.382 5.625 4.3 2.257-.084 3.11-1.391 5.837-1.391s3.5 1.391 5.882 1.348c2.428-.041 3.967-2.1 5.453-4.173a18.42 18.42 0 002.468-4.832 7.575 7.575 0 01-4.783-6.875M19.741 5.413a7.256 7.256 0 001.853-5.425 8.132 8.132 0 00-5.249 2.574 6.908 6.908 0 00-1.889 5.256 6.737 6.737 0 005.285-2.405" fill="#fff" fill-rule="evenodd"/></svg>